<svg width="80" height="81" viewBox="0 0 80 81" fill="none" xmlns="http://www.w3.org/2000/svg">
<g clip-path="url(#clip0_1_6990)">
<path fill-rule="evenodd" clip-rule="evenodd" d="M38.0411 0C32.229 0.247511 26.5418 1.79624 21.3843 4.536L38.0411 33.912V0ZM38.0411 47.0961L21.3896 76.464C26.5455 79.203 32.2308 80.7517 38.0411 81V47.0961ZM41.5013 81V47.0664L58.1687 76.4613C53.0079 79.2025 47.317 80.754 41.5013 81ZM41.5013 33.939V0C47.4964 0.2592 53.1494 1.8711 58.1714 4.5414L41.5013 33.939ZM6.19373 62.2809L35.0528 45.3141L18.3907 74.7009C13.4868 71.5129 9.32444 67.2745 6.19373 62.2809ZM73.3566 18.7245L44.5081 35.6832L61.1676 6.3072C66.0693 9.495 70.2271 13.7325 73.3566 18.7245ZM6.19108 18.7218C9.32186 13.7283 13.4842 9.48983 18.388 6.3018L35.0502 35.6886L6.19108 18.7218ZM4.45699 21.7728C1.765 27.028 0.244048 32.8229 0.00244141 38.745H33.324L4.45699 21.7728ZM4.45699 59.2299C1.7665 53.978 0.245594 48.1869 0.00244141 42.2685H33.3108L4.45964 59.2299H4.45699ZM46.229 38.745H79.5452C79.3033 32.8239 77.7823 27.0299 75.0907 21.7755L46.229 38.745ZM75.0907 59.2272L46.2422 42.2712H79.5452C79.3013 48.1877 77.7804 53.9769 75.0907 59.2272ZM44.5081 45.3195L61.1623 74.6955C66.0649 71.5079 70.2263 67.2705 73.3566 62.2782L44.5081 45.3195Z" fill="#FAFAFA"/>
</g>
<defs>
<clipPath id="clip0_1_6990">
<rect width="79.5455" height="81" fill="white"/>
</clipPath>
</defs>
</svg>
